<mxfile host="app.diagrams.net" modified="2023-10-18T10:47:53.323Z" agent="Mozilla/5.0 (Windows NT 10.0; Win64; x64; rv:109.0) Gecko/20100101 Firefox/118.0 Trailer/90.3.3942.43" version="22.0.4" etag="2u4rILrrWd_ZZT0T2ewO" type="github">
  <diagram name="PÃ¡gina-1" id="VhrPJe9VfQ8a3MTQ69Gy">
    <mxGraphModel>
      <root>
        <mxCell id="0" />
        <mxCell id="1" parent="0" />
      </root>
    </mxGraphModel>
  </diagram>
</mxfile>
